<?xml version="1.0" standalone="no"?>
<!DOCTYPE svg PUBLIC "-//W3C//DTD SVG 20010904//EN"
 "http://www.w3.org/TR/2001/REC-SVG-20010904/DTD/svg10.dtd">
<svg version="1.0" xmlns="http://www.w3.org/2000/svg"
 width="926.000000pt" height="926.000000pt" viewBox="0 0 926.000000 926.000000"
 preserveAspectRatio="xMidYMid meet">
<metadata>
Created by potrace 1.14, written by Peter Selinger 2001-2017
</metadata>
<g transform="translate(0.000000,926.000000) scale(0.100000,-0.100000)"
fill="#000000" stroke="none">
<path d="M4558 9165 c-2 -1 -66 -6 -143 -9 -953 -46 -1898 -412 -2635 -1020
-910 -750 -1481 -1794 -1624 -2966 -40 -329 -40 -735 0 -1070 99 -822 432
-1622 946 -2267 530 -667 1225 -1165 2028 -1453 348 -124 767 -217 1113 -245
37 -3 97 -8 135 -11 86 -7 465 -7 557 1 230 19 370 36 565 70 60 11 263 57
350 81 572 154 1151 447 1617 818 159 127 207 170 405 369 445 447 765 936
995 1517 113 287 209 633 253 915 6 39 13 81 15 95 12 72 26 207 33 305 14
216 7 713 -13 836 -2 13 -6 51 -10 84 -4 32 -8 67 -10 76 -2 9 -6 40 -10 70
-11 89 -73 368 -115 518 -118 417 -314 847 -564 1236 -259 402 -672 842 -1066
1136 -799 595 -1677 891 -2710 914 -60 1 -111 1 -112 0z"/>
</g>
</svg>
